<svg width="30" height="34" viewBox="0 0 30 34" fill="none" xmlns="http://www.w3.org/2000/svg">
<path d="M29.8886 20.5796C29.7656 18.4357 29.1956 14.1841 28.487 12.1057C26.9589 7.62044 22.4014 0.0296631 15.0114 0.0296631C7.62253 0.0296631 3.06419 7.62044 1.53586 12.1057C0.826693 14.186 0.256971 18.4368 0.134471 20.5799C-0.0516403 23.8365 1.17114 27.0141 3.5778 29.5277C6.28142 32.3513 10.0772 33.9707 13.9922 33.9707H16.0311C19.9456 33.9707 23.7414 32.3513 26.445 29.5277C28.8517 27.0139 30.0748 23.8365 29.8886 20.5796ZM25.2336 28.3975C22.8784 30.857 19.4384 32.3253 16.0309 32.3253H13.992C10.5845 32.3253 7.14392 30.857 4.78892 28.3972C2.7003 26.216 1.63836 23.4727 1.79836 20.6723C1.91864 18.5756 2.4778 14.5013 3.11558 12.6297C4.40697 8.8406 8.55503 1.67455 15.0117 1.67455C21.4695 1.67455 25.6167 8.8406 26.9075 12.63C27.545 14.4997 28.1048 18.5745 28.225 20.6723C28.3848 23.4727 27.3225 26.2162 25.2336 28.3975Z" fill="#0F0049"/>
<path d="M19.4711 10.1136C17.8286 10.1136 16.2719 10.659 15.0114 11.6637C13.7508 10.659 12.1941 10.1136 10.5514 10.1136C6.62553 10.1136 3.43164 13.2663 3.43164 17.1415C3.43164 19.7178 4.82914 22.0317 7.06081 23.2642C6.8297 23.7811 6.71025 24.3226 6.71025 24.8655C6.71025 27.9557 10.3564 30.376 15.0114 30.376C19.6664 30.376 23.3122 27.9557 23.3122 24.8655C23.3122 24.3226 23.1925 23.7808 22.9616 23.2642C25.1933 22.0317 26.5905 19.7176 26.5905 17.1415C26.5908 13.2663 23.3969 10.1136 19.4711 10.1136ZM21.4855 22.1398L20.4897 22.5311L21.1194 23.3874C21.4686 23.862 21.6458 24.3594 21.6458 24.8655C21.6458 26.9609 18.6075 28.7308 15.0116 28.7308C11.4155 28.7308 8.3772 26.9609 8.3772 24.8655C8.3772 24.3596 8.55442 23.8625 8.90386 23.3874L9.53358 22.5311L8.53803 22.1398C6.44886 21.3188 5.09914 19.3567 5.09914 17.1415C5.09914 14.1736 7.54525 11.7588 10.5522 11.7588C12.015 11.7588 13.3889 12.3239 14.4208 13.3497L15.0122 13.9378L15.6036 13.3497C16.6355 12.3239 18.0091 11.7588 19.4719 11.7588C22.4786 11.7588 24.925 14.1736 24.925 17.1415C24.9241 19.3567 23.5744 21.3188 21.4855 22.1398Z" fill="#0F0049"/>
<path d="M10.0111 17.9529C10.8357 17.9529 11.5042 17.2931 11.5042 16.4792C11.5042 15.6652 10.8357 15.0054 10.0111 15.0054C9.18653 15.0054 8.51807 15.6652 8.51807 16.4792C8.51807 17.2931 9.18653 17.9529 10.0111 17.9529Z" fill="#0F0049"/>
<path d="M20.0116 17.9529C20.8362 17.9529 21.5047 17.2931 21.5047 16.4792C21.5047 15.6652 20.8362 15.0054 20.0116 15.0054C19.187 15.0054 18.5186 15.6652 18.5186 16.4792C18.5186 17.2931 19.187 17.9529 20.0116 17.9529Z" fill="#0F0049"/>
<path d="M14.3894 20.9081H12.7228V23.126H14.3894V20.9081Z" fill="#0F0049"/>
<path d="M17.3 20.9081H15.6333V23.126H17.3V20.9081Z" fill="#0F0049"/>
</svg>
