<svg width="35" height="27" viewBox="0 0 35 27" fill="none" xmlns="http://www.w3.org/2000/svg">
<g clip-path="url(#clip0)">
<path d="M33.0881 2.20371C32.2325 1.35898 31.0995 0.89382 29.8975 0.89382C28.6725 0.89382 27.5243 1.37447 26.6639 2.24707L25.6916 3.23343C23.1988 1.59325 20.4209 0.730225 17.6141 0.730225C14.8071 0.730225 12.0292 1.59325 9.53672 3.23343L8.56408 2.24707C7.70369 1.37447 6.5552 0.894102 5.33046 0.894102C4.1288 0.894102 2.99578 1.35926 2.14018 2.20427C0.357797 3.96468 0.338665 6.84857 2.09741 8.63292L3.53233 10.0884C2.63537 11.962 2.16381 13.8989 2.16381 15.7247C2.16381 22.1941 8.08408 26.2131 17.6144 26.2131C27.1445 26.2131 33.0648 22.1941 33.0648 15.7247C33.0648 13.8992 32.5929 11.9625 31.6957 10.0884L33.1311 8.63292C34.8896 6.84857 34.8705 3.96468 33.0881 2.20371ZM31.9286 7.44608L30.068 9.33319C29.8095 9.59562 29.7507 9.99518 29.9226 10.321C30.8736 12.123 31.3761 13.9916 31.3761 15.7244C31.3761 22.2119 24.2668 24.5233 17.6139 24.5233C10.9607 24.5233 3.85138 22.2119 3.85138 15.7244C3.85138 13.9913 4.35388 12.1225 5.30458 10.321C5.47649 9.99518 5.4174 9.59534 5.15912 9.33319L3.2988 7.44608C2.19364 6.32484 2.20574 4.51263 3.32553 3.4066C3.8632 2.87583 4.57503 2.58327 5.33018 2.58327C6.09997 2.58327 6.82165 2.8854 7.36241 3.43363L8.83193 4.92401C9.12426 5.22051 9.58877 5.25908 9.9264 5.0158C12.2791 3.31734 14.9373 2.41968 17.6141 2.41968C20.2904 2.41968 22.9486 3.31734 25.3016 5.0158C25.6389 5.25936 26.104 5.22051 26.3964 4.92401L27.8659 3.43363C28.4064 2.8854 29.128 2.58327 29.8978 2.58327C30.6533 2.58327 31.3651 2.87583 31.9025 3.40632C33.0223 4.51291 33.0341 6.32484 31.9286 7.44608Z" fill="#0F0049"/>
<path d="M6.89982 11.7947C5.27893 13.4168 4.96719 15.7345 6.20346 16.9714C7.43945 18.2089 9.75529 17.8967 11.3762 16.2745C12.9968 14.6527 13.3085 12.335 12.0725 11.0978C10.8363 9.86081 8.52042 10.1728 6.89982 11.7947ZM8.89181 15.6185C8.05647 15.6185 7.37953 14.941 7.37953 14.105C7.37953 13.269 8.05647 12.5915 8.89181 12.5915C9.72715 12.5915 10.4041 13.269 10.4041 14.105C10.4041 14.941 9.72715 15.6185 8.89181 15.6185Z" fill="#0F0049"/>
<path d="M23.1554 11.0978C21.9188 12.335 22.2312 14.6527 23.8518 16.2745C25.4724 17.8967 27.7885 18.2087 29.0245 16.9714C30.261 15.7345 29.9487 13.4168 28.3281 11.7947C26.7075 10.1728 24.3911 9.86081 23.1554 11.0978ZM26.3361 15.6185C25.5008 15.6185 24.8238 14.941 24.8238 14.105C24.8238 13.269 25.5008 12.5915 26.3361 12.5915C27.1715 12.5915 27.8484 13.269 27.8484 14.105C27.8484 14.941 27.1712 15.6185 26.3361 15.6185Z" fill="#0F0049"/>
<path d="M19.1957 17.4922C19.5781 17.4116 19.8651 17.0729 19.8651 16.666C19.8651 16.1994 19.4872 15.8213 19.021 15.8213H16.2074C15.7412 15.8213 15.3634 16.1994 15.3634 16.666C15.3634 17.0726 15.6504 17.4113 16.0324 17.4922L14.6631 18.8626C14.3333 19.1923 14.3333 19.7273 14.6631 20.057C14.828 20.222 15.044 20.3045 15.2598 20.3045C15.4756 20.3045 15.6917 20.222 15.8566 20.057L17.6139 18.2983L19.3713 20.057C19.5362 20.222 19.7522 20.3045 19.968 20.3045C20.1838 20.3045 20.3999 20.222 20.5648 20.057C20.8945 19.7273 20.8945 19.1923 20.5648 18.8626L19.1957 17.4922Z" fill="#0F0049"/>
</g>
<defs>
<clipPath id="clip0">
<rect width="33.7719" height="26.0526" fill="white" transform="translate(0.614014 0.438599)"/>
</clipPath>
</defs>
</svg>
