<svg width="24" height="24" viewBox="0 0 24 24" fill="none" xmlns="http://www.w3.org/2000/svg">
<path opacity="0.8" d="M11.6495 23.548C11.3562 23.548 11.1215 23.46 10.9455 23.284C10.7695 23.108 10.6815 22.8733 10.6815 22.58V12.944H1.13355C0.840214 12.944 0.605547 12.856 0.429547 12.68C0.253547 12.504 0.165547 12.2693 0.165547 11.976V11.36C0.165547 11.0667 0.253547 10.832 0.429547 10.656C0.605547 10.48 0.840214 10.392 1.13355 10.392H10.6815V1.02C10.6815 0.726666 10.7695 0.491999 10.9455 0.315998C11.1215 0.139998 11.3562 0.0519986 11.6495 0.0519986H12.3095C12.6029 0.0519986 12.8375 0.139998 13.0135 0.315998C13.1895 0.491999 13.2775 0.726666 13.2775 1.02V10.392H22.8695C23.1629 10.392 23.3975 10.48 23.5735 10.656C23.7495 10.832 23.8375 11.0667 23.8375 11.36V11.976C23.8375 12.2693 23.7495 12.504 23.5735 12.68C23.3975 12.856 23.1629 12.944 22.8695 12.944H13.2775V22.58C13.2775 22.8733 13.1895 23.108 13.0135 23.284C12.8375 23.46 12.6029 23.548 12.3095 23.548H11.6495Z" fill="#FCFCFC"/>
</svg>
