<svg width="26" height="33" viewBox="0 0 26 33" fill="none" xmlns="http://www.w3.org/2000/svg">
<path d="M25.7961 28.7364L23.8997 11.3005C23.8699 5.07898 18.9978 0.0273438 13.0133 0.0273438C7.0289 0.0273438 2.15675 5.07931 2.12726 11.3005L0.230528 28.7364C0.198821 29.0281 0.292992 29.3195 0.487992 29.5317C0.682993 29.7442 0.959163 29.8574 1.23946 29.8356C1.25911 29.8343 3.19865 29.7003 4.94541 29.7003C6.1766 29.7003 6.78855 29.7663 7.08533 29.8221C8.57114 30.0999 11.4714 32.0588 12.4635 32.7904C12.6284 32.9115 12.8209 32.9726 13.0133 32.9726C13.2061 32.9726 13.3995 32.9112 13.5644 32.7891C14.5255 32.0779 17.3388 30.1676 18.7952 29.8745C19.1303 29.8072 19.8393 29.727 21.3153 29.727C23.0132 29.727 24.7768 29.8349 24.7942 29.8362C25.0729 29.8498 25.3475 29.7409 25.5409 29.529C25.7343 29.3172 25.8279 29.0268 25.7961 28.7364ZM21.3153 27.747C19.9908 27.747 19.0488 27.8071 18.434 27.9308C16.7282 28.274 14.1573 29.9762 13.0121 30.7804C11.8395 29.96 9.17294 28.2011 7.42143 27.8731C6.87131 27.7701 6.06119 27.7203 4.94477 27.7203C3.98214 27.7203 2.98368 27.7579 2.2468 27.7945L4.02304 11.4691C4.02716 11.4321 4.02907 11.3949 4.02907 11.3579C4.02907 6.20197 8.05907 2.00767 13.013 2.00767C17.9667 2.00767 21.997 6.20197 21.997 11.3579C21.997 11.3952 21.9992 11.4325 22.003 11.4691L23.7799 27.8034C23.1064 27.7751 22.21 27.747 21.3153 27.747Z" fill="#0F0049"/>
<path d="M7.30595 12.5807C8.24719 12.5807 9.01022 11.7866 9.01022 10.807C9.01022 9.82734 8.24719 9.0332 7.30595 9.0332C6.36471 9.0332 5.60168 9.82734 5.60168 10.807C5.60168 11.7866 6.36471 12.5807 7.30595 12.5807Z" fill="#0F0049"/>
<path d="M18.7206 12.5807C19.6619 12.5807 20.4249 11.7866 20.4249 10.807C20.4249 9.82734 19.6619 9.0332 18.7206 9.0332C17.7794 9.0332 17.0164 9.82734 17.0164 10.807C17.0164 11.7866 17.7794 12.5807 18.7206 12.5807Z" fill="#0F0049"/>
<path d="M13.0133 24.804L17.2583 13.3633H8.7677L13.0133 24.804ZM13.0133 19.3082L11.5421 15.3433H14.4845L13.0133 19.3082Z" fill="#0F0049"/>
</svg>
