<svg width="40" height="47" viewBox="0 0 40 47" fill="none" xmlns="http://www.w3.org/2000/svg">
<path d="M39.6863 40.9277L36.7688 16.0947C36.7229 7.23382 29.2273 0.0390625 20.0205 0.0390625C10.8137 0.0390625 3.31805 7.23429 3.27268 16.0947L0.354631 40.9277C0.30585 41.3431 0.450729 41.7581 0.750729 42.0603C1.05073 42.363 1.47561 42.5242 1.90683 42.4932C1.93707 42.4913 4.92097 42.3005 7.60829 42.3005C9.50244 42.3005 10.4439 42.3945 10.9005 42.474C13.1863 42.8697 17.6483 45.6596 19.1746 46.7016C19.4283 46.8741 19.7244 46.961 20.0205 46.961C20.3171 46.961 20.6146 46.8736 20.8683 46.6997C22.3468 45.6869 26.6751 42.966 28.9156 42.5487C29.4312 42.4528 30.5219 42.3386 32.7927 42.3386C35.4049 42.3386 38.118 42.4923 38.1449 42.4942C38.5737 42.5134 38.9961 42.3583 39.2937 42.0566C39.5912 41.7549 39.7351 41.3413 39.6863 40.9277ZM32.7927 39.5186C30.7551 39.5186 29.3059 39.6041 28.36 39.7804C25.7356 40.2692 21.7805 42.6934 20.0185 43.8388C18.2146 42.6704 14.1122 40.1653 11.4176 39.6981C10.5712 39.5515 9.32488 39.4805 7.60731 39.4805C6.12634 39.4805 4.59024 39.5341 3.45658 39.5863L6.18927 16.3349C6.19561 16.2823 6.19853 16.2292 6.19853 16.1765C6.19853 8.83323 12.3985 2.85953 20.02 2.85953C27.641 2.85953 33.8415 8.83323 33.8415 16.1765C33.8415 16.2296 33.8449 16.2827 33.8507 16.3349L36.5844 39.599C35.5483 39.5585 34.1693 39.5186 32.7927 39.5186Z" fill="#0F0049"/>
<path d="M11.24 17.9172C12.6881 17.9172 13.8619 16.7862 13.8619 15.391C13.8619 13.9958 12.6881 12.8647 11.24 12.8647C9.79193 12.8647 8.61804 13.9958 8.61804 15.391C8.61804 16.7862 9.79193 17.9172 11.24 17.9172Z" fill="#0F0049"/>
<path d="M28.801 17.9172C30.2491 17.9172 31.423 16.7862 31.423 15.391C31.423 13.9958 30.2491 12.8647 28.801 12.8647C27.353 12.8647 26.1791 13.9958 26.1791 15.391C26.1791 16.7862 27.353 17.9172 28.801 17.9172Z" fill="#0F0049"/>
<path d="M20.0205 35.3267L26.5512 19.0322H13.4888L20.0205 35.3267ZM20.0205 27.4993L17.7571 21.8522H22.2839L20.0205 27.4993Z" fill="#0F0049"/>
</svg>
