<svg width="113" height="133" viewBox="0 0 113 133" fill="none" xmlns="http://www.w3.org/2000/svg">
<g filter="url(#filter0_d)">
<path d="M90 44.6111C90 63.7263 55.5 99 55.5 99C55.5 99 21 63.7263 21 44.6111C21 25.4959 36.4462 10 55.5 10C74.5538 10 90 25.4959 90 44.6111Z" fill="#FCFCFC"/>
<path d="M89 44.6111C89 49.1333 86.9439 54.7404 83.7293 60.6988C80.5304 66.628 76.2531 72.7819 71.9575 78.3639C67.6647 83.9422 63.3695 88.9289 60.1462 92.5221C58.5351 94.3181 57.1929 95.7647 56.2544 96.7615C55.9625 97.0714 55.7097 97.3379 55.5 97.5577C55.2903 97.3379 55.0375 97.0714 54.7456 96.7615C53.8071 95.7647 52.4649 94.3181 50.8538 92.5221C47.6305 88.9289 43.3353 83.9422 39.0425 78.3639C34.7469 72.7819 30.4696 66.628 27.2707 60.6988C24.0561 54.7404 22 49.1333 22 44.6111C22 26.0452 37.0015 11 55.5 11C73.9985 11 89 26.0452 89 44.6111Z" stroke="#609FFF" stroke-width="2"/>
</g>
<defs>
<filter id="filter0_d" x="0" y="0" width="113" height="133" filterUnits="userSpaceOnUse" color-interpolation-filters="sRGB">
<feFlood flood-opacity="0" result="BackgroundImageFix"/>
<feColorMatrix in="SourceAlpha" type="matrix" values="0 0 0 0 0 0 0 0 0 0 0 0 0 0 0 0 0 0 127 0"/>
<feOffset dx="1" dy="12"/>
<feGaussianBlur stdDeviation="11"/>
<feColorMatrix type="matrix" values="0 0 0 0 0 0 0 0 0 0 0 0 0 0 0 0 0 0 0.09 0"/>
<feBlend mode="normal" in2="BackgroundImageFix" result="effect1_dropShadow"/>
<feBlend mode="normal" in="SourceGraphic" in2="effect1_dropShadow" result="shape"/>
</filter>
</defs>
</svg>
