<svg width="13" height="24" viewBox="0 0 13 24" fill="none" xmlns="http://www.w3.org/2000/svg">
<path d="M8.24995 17.9531C8.24995 19.8375 8.24527 21.7172 8.25464 23.6016C8.25464 23.8078 8.19839 23.8641 7.99214 23.8594C6.38902 23.85 4.79058 23.85 3.18745 23.8594C2.96714 23.8594 2.89683 23.8078 2.89683 23.5781C2.9062 19.8422 2.90151 16.1109 2.90151 12.375C2.90151 12 2.9437 12.0469 2.55933 12.0422C1.87964 12.0422 1.19995 12.0375 0.520264 12.0469C0.356201 12.0469 0.309326 11.9953 0.309326 11.8313C0.314014 10.6453 0.314014 9.4547 0.309326 8.26876C0.309326 8.1047 0.356201 8.05313 0.520264 8.05782C1.23276 8.0672 1.94058 8.05313 2.65308 8.0672C2.84526 8.07189 2.9062 8.02032 2.9062 7.81876C2.89683 6.82032 2.9062 5.8172 2.90151 4.81876C2.89683 3.98907 3.02339 3.18751 3.44058 2.45626C3.89058 1.65939 4.56558 1.11095 5.39995 0.754699C6.10308 0.454699 6.8437 0.314074 7.60308 0.271886C9.10777 0.187511 10.6171 0.257824 12.1218 0.229699C12.2906 0.225011 12.3328 0.285949 12.3328 0.445324C12.3281 1.67814 12.3281 2.91564 12.3328 4.14845C12.3328 4.33595 12.2625 4.36407 12.0984 4.36407C11.2312 4.35939 10.364 4.35939 9.49683 4.35939C8.77495 4.35939 8.25464 4.8797 8.25464 5.5922C8.25464 6.32814 8.26402 7.05938 8.24995 7.79532C8.24527 8.00626 8.31558 8.05782 8.51714 8.05782C9.70308 8.04845 10.8937 8.05782 12.0796 8.04845C12.2765 8.04845 12.3421 8.1047 12.3187 8.30157C12.2484 8.90626 12.1875 9.51095 12.1218 10.1156C12.0609 10.6969 11.9578 11.2734 11.864 11.85C11.8359 12.0141 11.7843 12.0516 11.6343 12.0516C10.6171 12.0469 9.60464 12.0469 8.58745 12.0516C8.18902 12.0516 8.24527 12 8.24527 12.4031C8.24995 14.25 8.24995 16.1016 8.24995 17.9531Z" fill="#080029"/>
</svg>
