<svg width="128" height="47" viewBox="0 0 128 47" fill="none" xmlns="http://www.w3.org/2000/svg">
<g clip-path="url(#clip0)">
<path d="M66.0841 15.5663L72.1738 15.1771C72.3127 16.1615 72.5674 16.8941 72.9842 17.4206C73.6557 18.2448 74.5819 18.6569 75.8091 18.6569C76.7121 18.6569 77.4299 18.4508 77.9162 18.0159C78.3793 17.6725 78.6572 17.123 78.6572 16.5507C78.6572 16.0012 78.4025 15.4747 77.9625 15.1313C77.4994 14.7192 76.4111 14.3071 74.6977 13.9408C71.8959 13.3227 69.8815 12.4986 68.7006 11.4455C67.5197 10.4611 66.8482 9.01878 66.8945 7.48492C66.8945 6.43183 67.2187 5.37874 67.8207 4.50879C68.5153 3.52438 69.4647 2.74601 70.5993 2.31103C71.8265 1.78449 73.5399 1.50977 75.6933 1.50977C78.333 1.50977 80.3475 1.99053 81.7367 2.97494C83.126 3.93646 83.9596 5.4932 84.2143 7.62228L78.1941 7.96568C78.032 7.04995 77.7078 6.38604 77.1752 5.95107C76.6427 5.5161 75.948 5.31006 75.045 5.31006C74.304 5.31006 73.7483 5.47031 73.3778 5.76792C73.0305 6.04264 72.799 6.45472 72.8221 6.91259C72.8221 7.25599 73.0074 7.5765 73.2852 7.78254C73.5862 8.05726 74.304 8.30908 75.4386 8.53802C78.2404 9.13324 80.2317 9.72847 81.4589 10.3466C82.6861 10.9647 83.566 11.7202 84.0985 12.613C84.6543 13.5288 84.9321 14.5819 84.909 15.6578C84.909 16.9399 84.5385 18.2219 83.7975 19.2979C83.0334 20.4197 81.9683 21.2896 80.7179 21.8161C79.3981 22.3885 77.731 22.6861 75.7396 22.6861C72.2201 22.6861 69.7888 22.0222 68.4227 20.6715C67.0566 19.3208 66.2462 17.6267 66.0841 15.5663ZM1.45888 22.3427V1.87606H12.1333C14.1014 1.87606 15.6296 2.03631 16.6716 2.37971C17.6904 2.70022 18.5935 3.36413 19.1955 4.25696C19.867 5.24138 20.1912 6.38604 20.168 7.5765C20.2375 9.59111 19.1955 11.5142 17.4126 12.5215C16.7179 12.9106 15.9538 13.1854 15.1665 13.3227C15.7454 13.483 16.3243 13.7577 16.8337 14.0782C17.2273 14.3987 17.5515 14.765 17.8525 15.1542C18.1998 15.5434 18.5008 15.9783 18.7556 16.4362L21.8583 22.3656H14.5877L11.1608 16.0699C10.7208 15.2687 10.3503 14.7421 10.003 14.4903C9.53992 14.1698 8.98421 14.0095 8.42849 14.0095H7.87277V22.3198H1.45888V22.3427ZM7.87277 10.1634H10.5819C11.1608 10.1177 11.7165 10.0261 12.2722 9.88872C12.689 9.82004 13.0595 9.59111 13.3142 9.24771C13.9393 8.42355 13.8467 7.25599 13.0826 6.5463C12.6658 6.2029 11.8554 6.01975 10.6977 6.01975H7.87277V10.1634ZM0.00012207 39.879L6.08985 39.4898C6.22878 40.4742 6.48348 41.2068 6.90027 41.7333C7.5486 42.5575 8.49795 42.9925 9.72516 42.9925C10.6282 42.9925 11.346 42.7864 11.8323 42.3515C12.2953 41.9852 12.5732 41.4586 12.5732 40.8863C12.5732 40.3368 12.3185 39.8103 11.8786 39.4669C11.4155 39.0548 10.3272 38.6427 8.59057 38.2764C5.78883 37.6583 3.77436 36.8342 2.59347 35.7811C1.41257 34.7967 0.741077 33.3544 0.787387 31.8205C0.787387 30.7674 1.11155 29.7143 1.71358 28.8444C2.40823 27.86 3.35758 27.0816 4.49216 26.6466C5.71937 26.1201 7.43283 25.8454 9.58623 25.8454C12.2259 25.8454 14.2404 26.3261 15.6296 27.3105C17.0189 28.295 17.8294 29.8288 18.0841 31.9579L12.0638 32.3013C11.9017 31.3856 11.5775 30.7217 11.045 30.2867C10.5356 29.8517 9.81778 29.6457 8.91474 29.6686C8.17379 29.6686 7.61807 29.8288 7.24759 30.1493C6.87711 30.424 6.66872 30.8361 6.69187 31.294C6.69187 31.6374 6.87711 31.9579 7.15497 32.1639C7.45598 32.4387 8.17379 32.6905 9.30837 32.9194C12.1101 33.5146 14.1014 34.1099 15.3286 34.728C16.5558 35.3461 17.4357 36.1016 17.9683 36.9944C18.524 37.9102 18.8019 38.9632 18.8019 40.0163C18.8019 41.2984 18.4082 42.5575 17.6904 43.6335C16.9263 44.7553 15.8612 45.6252 14.6108 46.1518C13.291 46.7241 11.6239 47.0217 9.63254 47.0217C6.113 47.0217 3.68174 46.3578 2.31561 45.0071C0.949471 43.6335 0.185361 41.9394 0.00012207 39.879H0.00012207Z" fill="white"/>
<path d="M30.796 38.2773L36.3995 39.9485C36.0985 41.345 35.4733 42.6728 34.6166 43.8403C33.8293 44.8705 32.7873 45.6718 31.6064 46.1984C30.4024 46.7249 28.8742 46.9996 27.0218 46.9996C24.7757 46.9996 22.9234 46.6791 21.5109 46.0381C20.0753 45.3971 18.8481 44.2524 17.8061 42.627C16.7642 41.0016 16.2548 38.9183 16.2548 36.3771C16.2548 32.9889 17.1578 30.3791 18.987 28.5705C20.8163 26.7619 23.3865 25.8462 26.7208 25.8462C29.3373 25.8462 31.3749 26.3727 32.8799 27.4029C34.3619 28.456 35.4733 30.0586 36.2142 32.2105L30.5645 33.4468C30.4255 32.966 30.2171 32.4853 29.9393 32.0732C29.592 31.5924 29.152 31.2261 28.6195 30.9514C28.0869 30.6767 27.4849 30.5622 26.8828 30.5622C25.4241 30.5622 24.3126 31.1346 23.5485 32.3021C22.9697 33.1492 22.6687 34.4999 22.6687 36.3313C22.6687 38.5978 23.016 40.1545 23.7106 41.0016C24.4053 41.8486 25.3778 42.2607 26.6513 42.2607C27.8785 42.2607 28.8047 41.9173 29.4299 41.2534C30.0551 40.5437 30.5182 39.5593 30.796 38.2773ZM43.8785 26.1896H50.2692V33.3552H57.262V26.1896H63.6991V46.6562H57.262V38.3688H50.2692V46.6562H43.8785V26.1896Z" fill="white"/>
<path d="M62.8191 36.4224C62.8191 33.0799 63.7684 30.4701 65.644 28.6157C67.5195 26.7614 70.1592 25.8228 73.5166 25.8228C76.9667 25.8228 79.6064 26.7385 81.4819 28.57C83.3575 30.4014 84.2836 32.9655 84.2836 36.2621C84.2836 38.6659 83.8669 40.6118 83.0564 42.1457C82.2692 43.6567 81.042 44.8929 79.5369 45.7171C77.9855 46.5641 76.0637 46.9991 73.7713 46.9991C71.4327 46.9991 69.5108 46.6328 67.9826 45.9002C66.4081 45.1218 65.1114 43.9085 64.2547 42.4204C63.3053 40.8179 62.8191 38.8262 62.8191 36.4224ZM69.2098 36.4453C69.2098 38.5057 69.6035 39.9937 70.3676 40.9095C71.1317 41.8023 72.1968 42.2602 73.5398 42.2602C74.9059 42.2602 75.9711 41.8252 76.7352 40.9323C77.4993 40.0395 77.8697 38.4599 77.8697 36.1705C77.8697 34.2475 77.4761 32.8281 76.6889 31.9582C75.9016 31.0653 74.8365 30.6304 73.4935 30.6304C72.3126 30.5846 71.178 31.0882 70.3907 31.9811C69.6035 32.8739 69.2098 34.362 69.2098 36.4453ZM90.8365 36.4224C90.8365 33.0799 91.7858 30.4701 93.6614 28.6157C95.5369 26.7614 98.1766 25.8228 101.534 25.8228C104.984 25.8228 107.647 26.7385 109.499 28.57C111.352 30.4014 112.301 32.9655 112.301 36.2621C112.301 38.6659 111.884 40.6118 111.074 42.1457C110.287 43.6567 109.059 44.8929 107.554 45.7171C106.003 46.5641 104.081 46.9991 101.789 46.9991C99.4501 46.9991 97.5282 46.6328 96 45.9002C94.4255 45.1218 93.1288 43.9085 92.2721 42.4204C91.3227 40.8179 90.8365 38.8262 90.8365 36.4224ZM97.2272 36.4453C97.2272 38.5057 97.6208 39.9937 98.385 40.9095C99.1491 41.8023 100.214 42.2602 101.557 42.2602C102.923 42.2602 103.988 41.8252 104.753 40.9323C105.517 40.0395 105.887 38.4599 105.887 36.1705C105.887 34.2475 105.493 32.8281 104.706 31.9582C103.919 31.0653 102.854 30.6304 101.511 30.6304C100.33 30.5846 99.1722 31.0882 98.4081 31.9811C97.6208 32.8739 97.2272 34.362 97.2272 36.4453Z" fill="white"/>
<path d="M111.63 26.1895H118.02V41.6196H128V46.6561H111.607V26.1895H111.63Z" fill="white"/>
<path d="M104.555 25.0114C110.983 20.2105 112.968 12.0749 108.987 6.83998C105.006 1.6051 96.5678 1.2533 90.1391 6.05423C83.7104 10.8552 81.7259 18.9908 85.7067 24.2257C89.6875 29.4606 98.126 29.8123 104.555 25.0114Z" stroke="white" stroke-width="1.17433" stroke-miterlimit="10"/>
<path d="M104.555 25.0114C110.983 20.2105 112.968 12.0749 108.987 6.83998C105.006 1.6051 96.5678 1.2533 90.1391 6.05423C83.7104 10.8552 81.7259 18.9908 85.7067 24.2257C89.6875 29.4606 98.126 29.8123 104.555 25.0114Z" stroke="white" stroke-width="1.17433" stroke-miterlimit="10"/>
<path d="M90.8601 14.0325L93.1756 12.4299L96.0236 16.4363C96.5099 17.0773 96.8804 17.7641 97.1582 18.5195C97.3203 19.0919 97.274 19.71 97.0424 20.2594C96.7414 20.9462 96.2552 21.5186 95.6068 21.9307C94.8427 22.4572 94.1944 22.7548 93.6387 22.8464C93.1061 22.938 92.5504 22.8464 92.041 22.6175C91.4853 22.3427 90.999 21.9535 90.6285 21.4499L92.6199 19.6184C92.7819 19.8703 92.9903 20.0992 93.2219 20.2823C93.384 20.3968 93.5692 20.4655 93.7776 20.4655C93.9397 20.4655 94.1018 20.3968 94.2175 20.3052C94.4491 20.1679 94.6112 19.8931 94.588 19.6184C94.5186 19.2292 94.3565 18.8401 94.1018 18.5424L90.8601 14.0325ZM97.8066 16.5736L99.9136 14.9253C100.145 15.2 100.446 15.4061 100.77 15.5205C101.233 15.6579 101.72 15.5663 102.113 15.2687C102.391 15.0855 102.623 14.8337 102.715 14.5132C102.854 14.1011 102.623 13.6433 102.206 13.5059C102.137 13.483 102.067 13.4601 101.998 13.4601C101.72 13.4372 101.233 13.5517 100.516 13.8493C99.3348 14.3301 98.4086 14.5132 97.7139 14.4445C97.0424 14.3759 96.4173 14.0325 96.0468 13.4601C95.7689 13.0709 95.63 12.6131 95.6068 12.1552C95.6068 11.6287 95.7458 11.1021 96.0468 10.6671C96.4867 10.049 97.0193 9.52247 97.6676 9.11039C98.6401 8.44648 99.4969 8.12598 100.238 8.12598C100.979 8.12598 101.673 8.46938 102.322 9.17907L100.238 10.8045C99.821 10.2779 99.0338 10.1635 98.5012 10.5756L98.4317 10.6442C98.2002 10.7816 98.0381 10.9876 97.9455 11.2395C97.876 11.4226 97.9223 11.6287 98.0381 11.7889C98.1307 11.9034 98.2697 11.9949 98.4317 11.9949C98.617 12.0178 98.9411 11.9263 99.4042 11.7202C100.562 11.2395 101.442 10.9647 102.044 10.8732C102.553 10.7816 103.086 10.8274 103.572 11.0334C104.012 11.2166 104.383 11.5371 104.637 11.9263C104.961 12.3841 105.147 12.9336 105.17 13.5059C105.193 14.1011 105.031 14.6735 104.707 15.1771C104.29 15.7952 103.757 16.3218 103.132 16.7339C101.859 17.6038 100.817 17.9701 99.9831 17.8327C99.0801 17.6954 98.3391 17.2375 97.8066 16.5736Z" fill="white"/>
</g>
<defs>
<clipPath id="clip0">
<rect width="128" height="47" fill="white"/>
</clipPath>
</defs>
</svg>
