<svg width="118" height="62" viewBox="0 0 118 62" fill="none" xmlns="http://www.w3.org/2000/svg">
<path d="M85.2401 18.3932V26.3458C85.2401 28.0872 84.7542 29.421 83.7827 30.3468C82.811 31.2837 81.4695 31.7522 79.7582 31.7522C78.7755 31.7522 77.8757 31.6144 77.0587 31.3388C76.2416 31.0743 75.546 30.694 74.972 30.198L76.0154 28.214C77.0642 29.0627 78.2898 29.4871 79.692 29.4871C80.6635 29.4871 81.3813 29.2446 81.845 28.7596C82.3197 28.2636 82.5571 27.5031 82.5571 26.478V25.7671C81.7842 26.715 80.6912 27.189 79.278 27.189C77.8095 27.189 76.6778 26.7756 75.8829 25.949C75.0989 25.1112 74.707 23.9099 74.707 22.3447V18.3932H77.39V22.1794C77.39 23.0832 77.6053 23.7666 78.0359 24.2295C78.4664 24.6924 79.0736 24.9239 79.8576 24.9239C80.6857 24.9239 81.3425 24.6814 81.8284 24.1964C82.3142 23.7115 82.5571 22.9784 82.5571 21.9975V18.3932H85.2401ZM97.3656 28.9746C96.8135 29.3493 96.1179 29.6414 95.2789 29.8508C94.4508 30.0603 93.5674 30.165 92.629 30.165C91.4587 30.165 90.465 30.0216 89.648 29.7351C88.8309 29.4375 88.2126 29.0296 87.7931 28.5116C87.3735 27.9826 87.1638 27.3819 87.1638 26.7095C87.1638 26.0923 87.3349 25.5467 87.6772 25.0727C88.0194 24.5987 88.4887 24.246 89.0849 24.0146C88.6321 23.772 88.2789 23.4414 88.025 23.0226C87.782 22.6037 87.6606 22.1352 87.6606 21.6172C87.6606 20.989 87.8538 20.4158 88.2403 19.8978C88.6267 19.3797 89.2118 18.9664 89.9958 18.6578C90.7796 18.3491 91.7402 18.1948 92.8774 18.1948C93.6282 18.1948 94.3624 18.272 95.0801 18.4263C95.7977 18.5696 96.4216 18.768 96.9516 19.0215L96.2063 21.0716C95.1905 20.5976 94.114 20.3607 92.9768 20.3607C92.1156 20.3607 91.4641 20.493 91.0226 20.7575C90.592 21.011 90.3767 21.3582 90.3767 21.7991C90.3767 22.2069 90.5201 22.5211 90.8073 22.7415C91.1054 22.9509 91.5525 23.0556 92.1488 23.0556H95.312V25.1719H91.9831C91.3096 25.1719 90.7907 25.2876 90.4264 25.5191C90.062 25.7506 89.8798 26.0867 89.8798 26.5276C89.8798 26.9906 90.1117 27.3543 90.5754 27.6188C91.0501 27.8723 91.7733 27.9991 92.745 27.9991C93.4295 27.9991 94.114 27.9109 94.7986 27.7346C95.4831 27.5472 96.0627 27.2882 96.5375 26.9575L97.3656 28.9746ZM112.171 18.1948C113.541 18.1948 114.606 18.5971 115.368 19.4018C116.13 20.1954 116.511 21.3472 116.511 22.8572V29.9666H113.828V22.9399C113.828 22.1243 113.612 21.5125 113.182 21.1047C112.763 20.6859 112.205 20.4764 111.509 20.4764C110.747 20.4764 110.14 20.6968 109.687 21.1378C109.235 21.5676 109.008 22.2235 109.008 23.1052V29.9666H106.325V22.9399C106.325 22.1243 106.127 21.5125 105.729 21.1047C105.332 20.6859 104.79 20.4764 104.106 20.4764C103.355 20.4764 102.753 20.6968 102.301 21.1378C101.848 21.5676 101.622 22.2235 101.622 23.1052V29.9666H98.9387V18.3932H101.539V19.8151C101.892 19.2971 102.361 18.9003 102.947 18.6247C103.532 18.3381 104.205 18.1948 104.967 18.1948C105.762 18.1948 106.458 18.3436 107.054 18.6412C107.65 18.9278 108.109 19.3467 108.429 19.8978C108.826 19.3467 109.345 18.9278 109.985 18.6412C110.636 18.3436 111.365 18.1948 112.171 18.1948ZM74.5455 34.7199H78.4954C79.4394 34.7199 80.2716 34.9018 80.9921 35.2655C81.7208 35.621 82.2838 36.1252 82.6813 36.7783C83.0871 37.4314 83.29 38.1919 83.29 39.0599C83.29 39.9279 83.0871 40.6884 82.6813 41.3415C82.2838 41.9946 81.7208 42.503 80.9921 42.8667C80.2716 43.2222 79.4394 43.3999 78.4954 43.3999H74.5455V34.7199ZM78.3961 41.7507C79.2655 41.7507 79.957 41.511 80.4704 41.0315C80.9921 40.5438 81.2529 39.8866 81.2529 39.0599C81.2529 38.2332 80.9921 37.5802 80.4704 37.1007C79.957 36.613 79.2655 36.3691 78.3961 36.3691H76.5577V41.7507H78.3961ZM84.6708 36.7287H86.6084V43.3999H84.6708V36.7287ZM85.6396 35.7987C85.2835 35.7987 84.9937 35.6954 84.7701 35.4887C84.5465 35.282 84.4348 35.0258 84.4348 34.7199C84.4348 34.414 84.5465 34.1578 84.7701 33.9511C84.9937 33.7444 85.2835 33.6411 85.6396 33.6411C85.9957 33.6411 86.2855 33.7403 86.5091 33.9387C86.7327 34.1371 86.8444 34.3851 86.8444 34.6827C86.8444 35.0051 86.7327 35.2738 86.5091 35.4887C86.2855 35.6954 85.9957 35.7987 85.6396 35.7987ZM95.3005 36.7287V42.2839C95.3005 43.5074 94.9817 44.4167 94.3441 45.0119C93.7065 45.6071 92.7749 45.9047 91.5493 45.9047C90.9034 45.9047 90.2907 45.8262 89.711 45.6691C89.1314 45.512 88.6511 45.2847 88.2702 44.9871L89.0403 43.5983C89.3218 43.8298 89.6779 44.0116 90.1085 44.1439C90.5391 44.2844 90.9697 44.3547 91.4003 44.3547C92.071 44.3547 92.5637 44.2018 92.8784 43.8959C93.2013 43.5983 93.3628 43.1436 93.3628 42.5319V42.2467C92.8577 42.8006 92.1538 43.0775 91.2512 43.0775C90.6385 43.0775 90.0754 42.9452 89.562 42.6807C89.0568 42.4079 88.6552 42.0276 88.3571 41.5399C88.059 41.0522 87.91 40.49 87.91 39.8535C87.91 39.217 88.059 38.6548 88.3571 38.1671C88.6552 37.6794 89.0568 37.3032 89.562 37.0387C90.0754 36.7659 90.6385 36.6295 91.2512 36.6295C92.2201 36.6295 92.9571 36.9478 93.4622 37.5843V36.7287H95.3005ZM91.6363 41.4903C92.1497 41.4903 92.5679 41.3415 92.8908 41.0439C93.222 40.738 93.3876 40.3412 93.3876 39.8535C93.3876 39.3658 93.222 38.9731 92.8908 38.6755C92.5679 38.3696 92.1497 38.2167 91.6363 38.2167C91.1229 38.2167 90.7006 38.3696 90.3693 38.6755C90.0381 38.9731 89.8725 39.3658 89.8725 39.8535C89.8725 40.3412 90.0381 40.738 90.3693 41.0439C90.7006 41.3415 91.1229 41.4903 91.6363 41.4903ZM97.1039 36.7287H99.0416V43.3999H97.1039V36.7287ZM98.0728 35.7987C97.7167 35.7987 97.4269 35.6954 97.2033 35.4887C96.9797 35.282 96.8679 35.0258 96.8679 34.7199C96.8679 34.414 96.9797 34.1578 97.2033 33.9511C97.4269 33.7444 97.7167 33.6411 98.0728 33.6411C98.4288 33.6411 98.7187 33.7403 98.9422 33.9387C99.1658 34.1371 99.2776 34.3851 99.2776 34.6827C99.2776 35.0051 99.1658 35.2738 98.9422 35.4887C98.7187 35.6954 98.4288 35.7987 98.0728 35.7987ZM104.865 43.0775C104.674 43.218 104.438 43.3255 104.157 43.3999C103.884 43.466 103.598 43.4991 103.299 43.4991C102.496 43.4991 101.879 43.2966 101.449 42.8915C101.018 42.4864 100.803 41.8912 100.803 41.1059V35.2531H102.74V36.8775H104.393V38.3655H102.74V41.0811C102.74 41.3622 102.811 41.5812 102.952 41.7383C103.092 41.8871 103.295 41.9615 103.561 41.9615C103.859 41.9615 104.124 41.8788 104.356 41.7135L104.865 43.0775ZM112.535 36.7287V43.3999H110.684V42.6311C110.204 43.2098 109.508 43.4991 108.597 43.4991C107.968 43.4991 107.397 43.3586 106.883 43.0775C106.378 42.7964 105.981 42.3955 105.691 41.8747C105.401 41.3539 105.256 40.7504 105.256 40.0643C105.256 39.3782 105.401 38.7747 105.691 38.2539C105.981 37.7331 106.378 37.3322 106.883 37.0511C107.397 36.77 107.968 36.6295 108.597 36.6295C109.45 36.6295 110.117 36.8982 110.597 37.4355V36.7287H112.535ZM108.933 41.9119C109.421 41.9119 109.827 41.7466 110.15 41.4159C110.473 41.077 110.634 40.6264 110.634 40.0643C110.634 39.5022 110.473 39.0558 110.15 38.7251C109.827 38.3862 109.421 38.2167 108.933 38.2167C108.436 38.2167 108.026 38.3862 107.703 38.7251C107.38 39.0558 107.219 39.5022 107.219 40.0643C107.219 40.6264 107.38 41.077 107.703 41.4159C108.026 41.7466 108.436 41.9119 108.933 41.9119ZM116.726 43.4991C115.972 43.4991 115.384 43.3007 114.962 42.9039C114.54 42.4988 114.329 41.9284 114.329 41.1927V34.1991H116.266V41.0811C116.266 41.3622 116.337 41.5812 116.477 41.7383C116.627 41.8871 116.834 41.9615 117.099 41.9615C117.198 41.9615 117.297 41.9491 117.397 41.9243C117.504 41.8995 117.587 41.8706 117.645 41.8375L117.732 43.3379C117.409 43.4454 117.074 43.4991 116.726 43.4991Z" fill="#F2F2F2"/>
<path d="M18.293 17.1349C18.3353 17.1866 18.3729 17.2288 18.4152 17.2805C18.6693 17.5858 18.9422 17.9193 19.2386 18.2763C19.3845 18.4548 19.5397 18.638 19.695 18.8258C20.4807 19.7699 21.37 20.8408 22.3062 21.9587C22.6779 22.4049 23.059 22.8605 23.4401 23.3161C23.8213 23.7718 24.207 24.232 24.5882 24.6876C24.6117 24.7158 24.6352 24.7441 24.6588 24.7722C24.8328 24.9788 25.0022 25.1855 25.1762 25.3875C25.2045 25.4204 25.2327 25.458 25.2656 25.4908C25.4021 25.6505 25.5338 25.8102 25.6656 25.9699C25.7503 26.0732 25.8349 26.1719 25.9196 26.2752C25.9432 26.3035 25.9667 26.3316 25.9902 26.3598C26.0419 26.4255 26.0985 26.4866 26.1502 26.5524C26.216 26.6322 26.2819 26.712 26.3478 26.7919C26.376 26.8295 26.409 26.8624 26.4371 26.8999C26.5172 26.9938 26.5972 27.0925 26.6772 27.1864C26.7336 27.2522 26.7853 27.318 26.8418 27.3837C26.9077 27.4636 26.9735 27.5435 27.0395 27.6232C27.0959 27.6937 27.157 27.7595 27.2135 27.8299C27.2417 27.8629 27.27 27.9004 27.3029 27.9332C27.3923 28.0413 27.4816 28.1493 27.5711 28.2526C27.5993 28.2855 27.6275 28.3185 27.6558 28.3513C27.7075 28.417 27.7639 28.4781 27.8157 28.5392C27.8722 28.6049 27.9239 28.6707 27.9804 28.7364C28.0086 28.7693 28.0321 28.7975 28.0604 28.8304C28.3897 29.2202 28.6956 29.5913 28.9873 29.9342C29.0014 29.9482 29.0154 29.967 29.0296 29.9812C29.119 30.0845 29.199 30.1831 29.2836 30.2818C29.3307 30.3381 29.3777 30.3945 29.4201 30.4462C29.4389 30.4697 29.4625 30.4979 29.4812 30.5213C29.6224 30.6857 29.7494 30.8407 29.8765 30.991C30.0318 31.1742 30.1776 31.348 30.3046 31.4982C30.3423 31.5453 30.3752 31.5829 30.4082 31.6251L30.4128 31.6298C30.5493 31.7942 30.6716 31.9398 30.7704 32.0572C30.7704 32.0572 30.7704 32.0572 30.7751 32.0619C30.8222 32.1182 30.8693 32.1699 30.9069 32.2169C30.9163 32.2263 30.9257 32.231 30.9351 32.2404C30.9869 32.278 31.0715 32.2826 31.1233 32.2404C31.1327 32.231 31.1421 32.2263 31.1516 32.2169C31.1845 32.1793 31.2221 32.1324 31.2645 32.0854C31.2926 32.0478 31.3257 32.0103 31.3586 31.9726C31.4338 31.8835 31.5185 31.7848 31.6079 31.6768C31.6408 31.6392 31.6691 31.6063 31.6974 31.5687C31.7067 31.5593 31.7114 31.5499 31.7209 31.5405C31.7678 31.4842 31.8196 31.4231 31.8714 31.362C31.8714 31.3574 31.8761 31.3574 31.8761 31.3574C31.9185 31.3057 31.9654 31.2493 32.0125 31.193C32.0455 31.1507 32.0831 31.1085 32.1207 31.0614C32.2525 30.9018 32.3937 30.7374 32.5442 30.5542C32.563 30.5307 32.5818 30.5072 32.6053 30.4837C32.6665 30.4086 32.7371 30.3287 32.8029 30.2488C32.8641 30.1785 32.9253 30.1032 32.9865 30.0281C33.1982 29.7745 33.424 29.5068 33.6593 29.2249C33.7064 29.1732 33.7487 29.1169 33.7957 29.0653C33.8099 29.0464 33.8286 29.0276 33.8428 29.0088C33.9086 28.9291 33.9792 28.8492 34.045 28.7647C34.1156 28.6801 34.1862 28.5955 34.2615 28.5063C34.3038 28.4547 34.3461 28.4076 34.3885 28.356C34.4073 28.3325 34.4262 28.3137 34.445 28.2903C34.5437 28.1681 34.6473 28.046 34.7508 27.9238C34.779 27.891 34.8025 27.8629 34.8308 27.8299C34.8637 27.7924 34.8967 27.7548 34.9249 27.7172C35.179 27.4166 35.4377 27.1066 35.7012 26.7872C35.7624 26.712 35.8283 26.6369 35.8894 26.5618C35.8988 26.5524 35.9082 26.5382 35.9176 26.5288C35.9976 26.4302 36.0823 26.3316 36.167 26.233C36.2376 26.1531 36.3034 26.0686 36.374 25.9887C36.5058 25.8337 36.6375 25.6741 36.7693 25.5143C36.8069 25.4674 36.8445 25.4204 36.8869 25.3735C37.0562 25.1714 37.2257 24.9694 37.395 24.7675C37.4185 24.7441 37.4373 24.7158 37.4608 24.6924C37.8419 24.2368 38.2231 23.7764 38.6088 23.3208C38.99 22.8652 39.3711 22.4097 39.7428 21.9635C40.6744 20.8455 41.5683 19.7747 42.354 18.8305C42.5093 18.6426 42.6645 18.4594 42.8104 18.281C43.1068 17.9241 43.3797 17.5905 43.6338 17.2852C43.6761 17.2336 43.709 17.1913 43.7514 17.1443C40.392 14.0913 35.927 12.2266 31.0292 12.2266C26.1172 12.2266 21.6522 14.0866 18.293 17.1349Z" fill="white"/>
<path d="M36.4487 40.0988C36.1805 39.8546 35.7572 39.925 35.5736 40.2397L32.7037 45.2185L31.9932 46.4444C31.8614 46.6698 31.6215 46.8108 31.358 46.8108H31.0193H30.6899H30.6805C30.417 46.8108 30.1723 46.6698 30.0406 46.4397L30.0359 46.435L26.4601 40.2303C26.2814 39.9156 25.8532 39.8498 25.585 40.0894L22.9173 42.4661L19.2098 45.7728C22.4421 48.3608 26.5449 49.9108 31.0145 49.9108C35.4842 49.9108 39.587 48.3608 42.8239 45.768L41.3984 44.4952L36.4487 40.0988Z" fill="white"/>
<path d="M16.2652 29.3187C15.3995 27.8673 14.3832 26.1624 13.5269 24.7204C13.4657 24.6171 13.4046 24.5137 13.3434 24.415C12.5576 26.4865 12.1249 28.7316 12.1249 31.0754C12.1249 33.6399 12.6377 36.0777 13.5692 38.3041L14.2891 37.4257L18.1565 32.7053C18.1613 32.7005 18.1942 32.663 18.2366 32.6066C18.2319 32.6019 18.2271 32.5972 18.2225 32.5878C18.1048 32.4047 17.2861 31.0331 16.2652 29.3187Z" fill="white"/>
<path d="M31.0526 0C13.9031 0 0 13.8701 0 30.9812C0 48.0923 13.9031 61.9624 31.0526 61.9624C48.2022 61.9624 62.1053 48.0923 62.1053 30.9812C62.1053 13.8701 48.2022 0 31.0526 0ZM55.3301 47.3173H55.316H44.6029C44.5888 47.3173 44.57 47.3126 44.5559 47.3079C44.5511 47.3126 44.5511 47.3126 44.5465 47.3173L44.5417 47.3126C40.8719 50.3562 36.1575 52.188 31.015 52.188C25.8725 52.188 21.1581 50.3562 17.493 47.3126H17.4883C17.4836 47.3079 17.4836 47.3079 17.4789 47.3032C17.4647 47.3079 17.4506 47.3126 17.4318 47.3126H6.71866H6.70454C6.49283 47.3126 6.37991 47.0683 6.51164 46.9087L11.9553 40.2624C10.605 37.4818 9.84745 34.363 9.84745 31.0657C9.84745 19.4032 19.3232 9.94818 31.015 9.94818C42.7068 9.94818 52.1825 19.4032 52.1825 31.0657C52.1825 34.3583 51.425 37.4771 50.0794 40.2577L52.1449 42.7754L55.523 46.8993L55.5325 46.9087C55.6548 47.073 55.5419 47.3173 55.3301 47.3173Z" fill="white"/>
<path d="M48.5121 24.7159C47.6512 26.1579 46.6396 27.8629 45.7739 29.3142C44.7483 31.0333 43.9343 32.4001 43.8213 32.588C43.8167 32.5927 43.8119 32.5974 43.8073 32.6021L43.8777 32.6913C43.8825 32.696 43.8825 32.7007 43.8872 32.7054L48.4651 38.2948C49.392 36.0685 49.9049 33.6307 49.9049 31.0709C49.9049 28.7271 49.472 26.4866 48.6909 24.4199C48.6298 24.5186 48.5733 24.6172 48.5121 24.7159Z" fill="white"/>
</svg>
