<svg width="22" height="22" viewBox="0 0 22 22" fill="none" xmlns="http://www.w3.org/2000/svg">
<path d="M14.52 11C14.52 11.6962 14.3136 12.3767 13.9268 12.9556C13.54 13.5345 12.9902 13.9856 12.347 14.2521C11.7038 14.5185 10.9961 14.5882 10.3133 14.4524C9.63047 14.3165 9.00326 13.9813 8.51098 13.489C8.0187 12.9967 7.68346 12.3695 7.54764 11.6867C7.41182 11.0039 7.48152 10.2962 7.74794 9.65295C8.01436 9.00976 8.46553 8.46001 9.04439 8.07323C9.62325 7.68644 10.3038 7.48 11 7.48C11.9332 7.48107 12.8279 7.85227 13.4878 8.51216C14.1477 9.17206 14.5189 10.0668 14.52 11ZM22 6.16V15.84C21.9981 17.4732 21.3486 19.0389 20.1937 20.1937C19.0389 21.3486 17.4732 21.9981 15.84 22H6.16C4.52683 21.9981 2.96109 21.3486 1.80627 20.1937C0.651442 19.0389 0.00184962 17.4732 0 15.84V6.16C0.00184962 4.52683 0.651442 2.96109 1.80627 1.80627C2.96109 0.651442 4.52683 0.00184962 6.16 0H15.84C17.4732 0.00184962 19.0389 0.651442 20.1937 1.80627C21.3486 2.96109 21.9981 4.52683 22 6.16ZM16.28 11C16.28 9.95571 15.9703 8.93488 15.3902 8.06659C14.81 7.1983 13.9854 6.52155 13.0206 6.12192C12.0558 5.72229 10.9941 5.61772 9.96992 5.82145C8.9457 6.02518 8.0049 6.52806 7.26648 7.26648C6.52806 8.0049 6.02518 8.9457 5.82145 9.96992C5.61772 10.9941 5.72229 12.0558 6.12192 13.0206C6.52155 13.9854 7.1983 14.81 8.06659 15.3902C8.93488 15.9703 9.95571 16.28 11 16.28C12.3999 16.2784 13.7419 15.7216 14.7318 14.7318C15.7216 13.7419 16.2784 12.3999 16.28 11ZM18.04 5.28C18.04 5.01893 17.9626 4.76372 17.8175 4.54665C17.6725 4.32957 17.4663 4.16039 17.2251 4.06048C16.9839 3.96057 16.7185 3.93443 16.4625 3.98536C16.2064 4.0363 15.9712 4.16201 15.7866 4.34662C15.602 4.53122 15.4763 4.76643 15.4254 5.02248C15.3744 5.27854 15.4006 5.54394 15.5005 5.78514C15.6004 6.02634 15.7696 6.2325 15.9866 6.37754C16.2037 6.52258 16.4589 6.6 16.72 6.6C17.0701 6.6 17.4058 6.46093 17.6534 6.21338C17.9009 5.96583 18.04 5.63009 18.04 5.28Z" fill="#080029"/>
</svg>
