<svg width="26" height="33" viewBox="0 0 26 33" fill="none" xmlns="http://www.w3.org/2000/svg">
<circle cx="13" cy="8" r="7" stroke="#FCFCFC" stroke-width="2"/>
<path fill-rule="evenodd" clip-rule="evenodd" d="M24.9565 33C24.4186 33 24 32.5379 24 32C24 25.9249 19.0751 21 13 21C6.92487 21 2 25.9249 2 32C2 32.5379 1.58136 33 1.0435 33H0.958273C0.439041 33 0.0033959 32.5998 0.000244471 32.0806C8.15684e-05 32.0537 0 32.0269 0 32C0 24.8203 5.8203 19 13 19C20.1797 19 26 24.8203 26 32C26 32.0269 25.9999 32.0537 25.9998 32.0806C25.9966 32.5998 25.561 33 25.0417 33H24.9565Z" fill="#FCFCFC"/>
</svg>
