<svg width="24" height="20" viewBox="0 0 24 20" fill="none" xmlns="http://www.w3.org/2000/svg">
<path d="M0.0332476 17.7535C2.67405 17.9954 5.05363 17.3181 7.21947 15.6637C4.95389 15.4605 3.43875 14.3091 2.59331 12.1516C3.33426 12.2435 4.02771 12.2677 4.7639 12.0645C2.32258 11.2905 1.02118 9.66505 0.845438 7.04307C1.57688 7.39138 2.26558 7.64294 3.07778 7.65261C1.62913 6.5448 0.888185 5.10803 0.916683 3.29877C0.930932 2.4667 1.14942 1.68301 1.58163 0.942861C4.26519 4.14051 7.63269 5.91108 11.7791 6.20617C11.7554 6.02234 11.7411 5.87721 11.7221 5.72725C11.3802 3.04722 13.09 0.609067 15.7024 0.101119C17.341 -0.218163 18.7896 0.222059 20.015 1.37341C20.205 1.54756 20.3665 1.58626 20.604 1.52337C21.5587 1.27666 22.4659 0.918673 23.3445 0.434913C23.0073 1.56691 22.3139 2.41833 21.3734 3.13429C21.5872 3.09559 21.8057 3.06657 22.0194 3.02303C22.2426 2.97465 22.4659 2.92144 22.6891 2.85855C22.9028 2.8005 23.1118 2.73277 23.3208 2.66021C23.5345 2.58764 23.7483 2.50541 24 2.46187C23.8765 2.63602 23.7578 2.81985 23.6248 2.98917C23.0738 3.70029 22.4374 4.32434 21.7392 4.88067C21.6679 4.93872 21.6062 5.06449 21.6109 5.15157C21.6489 6.86892 21.4114 8.54273 20.8652 10.1682C19.7918 13.3707 17.9204 15.9636 15.1134 17.8164C13.7265 18.7307 12.2114 19.3306 10.5917 19.6789C8.98634 20.0224 7.37146 20.0852 5.75183 19.8917C4.12745 19.6982 2.58381 19.2096 1.13042 18.4453C0.745696 18.2469 0.375223 18.0244 0 17.8116C0.014249 17.7922 0.0237483 17.7729 0.0332476 17.7535Z" fill="#080029"/>
</svg>
